<?xml version="1.0" standalone="no"?>
<!DOCTYPE svg PUBLIC "-//W3C//DTD SVG 20010904//EN"
 "http://www.w3.org/TR/2001/REC-SVG-20010904/DTD/svg10.dtd">
<svg version="1.0" xmlns="http://www.w3.org/2000/svg"
 width="370.000000pt" height="370.000000pt" viewBox="0 0 370.000000 370.000000"
 preserveAspectRatio="xMidYMid meet">
<metadata>
Created by potrace 1.14, written by Peter Selinger 2001-2017
</metadata>
<g transform="translate(0.000000,370.000000) scale(0.100000,-0.100000)"
fill="#000000" stroke="none">
<path d="M1718 3285 c-2 -2 -23 -5 -48 -8 -96 -12 -138 -20 -225 -44 -407
-115 -755 -419 -921 -805 -120 -280 -148 -558 -88 -880 8 -45 47 -172 70 -229
124 -305 353 -564 641 -726 112 -62 295 -130 402 -148 19 -3 37 -7 40 -9 29
-18 304 -26 420 -13 114 12 295 60 400 106 84 36 248 124 261 140 3 3 32 26
65 50 83 62 219 202 287 297 189 264 282 571 272 899 -2 60 -6 121 -9 135 -3
14 -7 43 -11 65 -28 196 -137 449 -270 625 -68 91 -224 250 -281 287 -25 17
-26 16 -49 -12 -30 -37 -30 -37 4 -57 55 -33 194 -173 265 -267 123 -163 192
-307 241 -503 33 -127 41 -200 40 -353 -1 -106 -5 -147 -30 -280 -20 -115 -96
-304 -167 -418 -161 -258 -375 -444 -638 -558 -531 -228 -1136 -112 -1544 296
-273 273 -416 627 -410 1013 6 316 109 607 302 852 262 331 664 529 1085 534
64 0 114 4 112 8 -4 6 -210 9 -216 3z"/>
<path d="M1956 3282 c-3 -5 0 -9 7 -9 7 0 35 -4 62 -8 28 -4 48 -5 45 -2 -3 3
-25 8 -50 12 -24 4 -48 9 -52 11 -3 2 -9 1 -12 -4z"/>
<path d="M2108 3253 c6 -2 18 -2 25 0 6 3 1 5 -13 5 -14 0 -19 -2 -12 -5z"/>
<path d="M2175 3240 c3 -5 8 -10 11 -10 2 0 4 5 4 10 0 6 -5 10 -11 10 -5 0
-7 -4 -4 -10z"/>
<path d="M2207 3229 c7 -7 15 -10 18 -7 3 3 -2 9 -12 12 -14 6 -15 5 -6 -5z"/>
<path d="M2307 3199 c7 -7 15 -10 18 -7 3 3 -2 9 -12 12 -14 6 -15 5 -6 -5z"/>
<path d="M1130 2594 c0 -2 9 -26 20 -55 20 -50 21 -68 18 -719 -3 -620 -4
-669 -20 -687 -10 -11 -18 -21 -18 -24 0 -2 23 -5 50 -7 28 -1 50 -1 50 1 0 2
-8 19 -17 38 -17 31 -18 87 -21 664 l-2 630 28 -50 c16 -27 120 -216 231 -420
112 -203 211 -381 221 -395 15 -22 23 -24 97 -25 l81 -1 57 115 c178 358 226
462 222 473 -2 7 -27 -34 -55 -92 -28 -58 -90 -188 -140 -289 l-89 -184 -58
114 c-32 63 -61 119 -65 124 -4 6 -47 87 -95 180 -48 94 -105 202 -125 240
-21 39 -70 133 -110 210 -40 77 -77 145 -82 152 -8 10 -178 16 -178 7z"/>
<path d="M2275 2453 c-83 -172 -83 -172 -64 -156 8 7 39 64 69 127 30 63 57
115 60 115 3 1 5 -304 5 -677 -1 -660 -1 -678 -21 -718 l-20 -41 133 0 c121 0
150 5 123 22 -29 18 -33 99 -33 725 1 625 4 707 33 725 27 17 0 23 -103 23
l-113 0 -69 -145z"/>
<path d="M1868 2335 c-2 -2 -30 -5 -63 -6 -65 -3 -119 -17 -190 -48 -47 -21
-54 -35 -32 -64 11 -15 16 -13 52 18 86 75 185 99 296 71 137 -35 242 -130
280 -256 11 -39 23 -70 25 -70 2 0 4 63 4 140 0 142 -4 157 -36 125 -25 -24
-68 -18 -141 21 -61 33 -187 77 -195 69z"/>
<path d="M1324 1938 c-28 -92 -25 -269 5 -358 87 -250 306 -395 571 -377 47 3
114 15 150 26 95 29 121 31 156 10 l31 -19 1 145 c0 83 -3 145 -9 145 -5 0 -9
-9 -9 -19 0 -69 -87 -203 -154 -238 -80 -42 -236 -52 -323 -21 -163 59 -278
267 -285 514 -1 61 -6 87 -23 114 -12 19 -34 59 -49 88 -14 28 -30 52 -35 52
-4 0 -16 -28 -27 -62z"/>
</g>
</svg>
