<?xml version="1.0" standalone="no"?>
<!DOCTYPE svg PUBLIC "-//W3C//DTD SVG 20010904//EN"
 "http://www.w3.org/TR/2001/REC-SVG-20010904/DTD/svg10.dtd">
<svg version="1.0" xmlns="http://www.w3.org/2000/svg"
 width="700.000000pt" height="700.000000pt" viewBox="0 0 700.000000 700.000000"
 preserveAspectRatio="xMidYMid meet">
<metadata>
Created by potrace 1.14, written by Peter Selinger 2001-2017
</metadata>
<g transform="translate(0.000000,700.000000) scale(0.100000,-0.100000)"
fill="#000000" stroke="none">
<path d="M0 3500 l0 -3500 3500 0 3500 0 0 3500 0 3500 -3500 0 -3500 0 0
-3500z m3660 3201 c69 -4 25 -7 -155 -8 -318 -2 -442 -15 -760 -82 -27 -6 -61
-15 -75 -20 -14 -5 -45 -14 -70 -21 -93 -26 -278 -90 -348 -121 -303 -135
-542 -279 -782 -473 -102 -82 -331 -310 -407 -404 -35 -42 -79 -97 -98 -121
-46 -56 -192 -278 -235 -356 -228 -412 -342 -771 -395 -1245 -31 -269 -10
-691 45 -935 75 -329 141 -520 269 -780 30 -60 71 -139 93 -174 21 -34 38 -65
38 -67 0 -11 162 -241 229 -324 82 -102 338 -365 436 -447 289 -242 641 -439
1005 -564 82 -28 263 -80 325 -93 411 -86 838 -95 1225 -25 159 29 185 35 320
74 315 90 621 234 906 425 39 27 80 55 90 64 11 8 60 47 109 86 94 75 225 198
335 316 285 305 504 671 653 1094 16 47 33 99 37 115 4 17 17 64 28 105 70
266 102 510 102 785 0 668 -210 1307 -607 1846 -104 141 -165 212 -303 350
-130 130 -193 185 -297 261 -39 29 -74 58 -76 63 -3 6 17 41 45 78 l49 68 47
-38 c345 -276 585 -539 785 -860 80 -128 211 -380 247 -473 11 -30 25 -64 29
-75 55 -123 142 -426 171 -595 43 -254 45 -273 45 -590 0 -342 -7 -416 -61
-675 -43 -204 -116 -433 -197 -620 -39 -91 -130 -269 -169 -333 -21 -34 -38
-64 -38 -66 0 -6 -150 -227 -183 -271 -413 -534 -946 -916 -1562 -1117 -265
-87 -470 -128 -755 -153 -208 -18 -322 -18 -530 0 -206 18 -374 46 -540 89
-1135 297 -2010 1167 -2309 2296 -88 332 -124 684 -102 998 21 297 46 436 141
777 4 17 26 80 48 140 215 592 605 1112 1117 1490 155 114 404 258 590 340 33
15 69 31 80 36 113 51 330 118 550 169 235 55 589 80 865 61z m188 -18 c-16
-2 -40 -2 -55 0 -16 2 -3 4 27 4 30 0 43 -2 28 -4z m130 -20 c-10 -2 -28 -2
-40 0 -13 2 -5 4 17 4 22 1 32 -1 23 -4z m169 -29 c-3 -3 -12 -4 -19 -1 -8 3
-5 6 6 6 11 1 17 -2 13 -5z m-1848 -1519 c15 -27 64 -121 109 -208 46 -87 102
-195 126 -240 44 -83 115 -219 227 -434 71 -136 163 -313 224 -428 23 -44 75
-143 115 -220 40 -77 92 -176 115 -220 66 -124 200 -384 232 -448 23 -45 31
-55 41 -45 7 7 12 15 12 19 0 4 51 112 114 240 62 129 155 320 206 424 51 105
135 277 186 383 84 172 114 220 114 178 0 -7 -48 -110 -106 -227 -59 -118
-157 -317 -219 -444 -62 -126 -156 -319 -209 -427 l-97 -198 -184 0 -183 0
-25 48 c-14 27 -34 64 -44 83 -11 19 -35 61 -53 94 -18 33 -41 74 -50 90 -9
17 -32 57 -50 90 -18 33 -42 76 -53 95 -11 19 -38 69 -60 110 -22 41 -59 109
-82 150 -93 164 -130 232 -175 315 -18 33 -126 229 -240 435 -114 206 -217
394 -229 418 -12 23 -26 42 -31 42 -14 0 -13 -2660 0 -2754 11 -76 40 -149 72
-183 l21 -23 -116 0 c-64 0 -117 4 -117 8 0 5 9 17 20 27 35 32 58 114 70 255
8 97 10 516 8 1470 l-3 1335 -38 95 c-20 52 -44 107 -53 123 l-15 27 196 -2
196 -3 28 -50z m2789 28 c-32 -36 -53 -82 -70 -158 -20 -89 -19 -2882 1 -2970
17 -74 38 -122 70 -157 l25 -28 -302 0 c-167 0 -302 4 -302 9 0 5 7 14 16 22
25 20 52 82 65 146 18 87 25 3057 7 3051 -7 -3 -40 -60 -74 -129 -181 -367
-210 -423 -221 -427 -7 -2 -13 1 -13 7 0 6 48 109 106 229 58 119 126 260 151
312 25 52 50 101 56 108 7 9 71 12 260 12 l251 0 -26 -27z m-1429 -588 c36 -9
74 -20 83 -25 10 -6 22 -10 28 -10 14 0 137 -60 205 -101 131 -78 246 -89 326
-31 23 18 47 32 51 32 4 0 8 -141 7 -312 l0 -313 -43 130 c-24 72 -53 149 -64
172 -57 112 -150 213 -262 288 -73 49 -228 125 -253 125 -9 0 -18 4 -21 9 -3
4 -55 16 -115 26 -96 15 -121 16 -193 5 -175 -26 -315 -97 -435 -219 -22 -23
-43 -41 -46 -41 -11 0 -59 101 -54 114 12 30 246 121 372 145 33 6 69 12 80
15 55 11 274 5 334 -9z m-1251 -757 c12 -24 36 -68 53 -98 161 -286 146 -240
152 -445 9 -278 58 -480 169 -695 72 -138 143 -229 248 -314 138 -112 252
-156 460 -177 l135 -14 -80 -3 c-140 -6 -344 26 -480 75 -166 61 -302 148
-425 272 -175 177 -287 385 -342 640 -28 131 -31 396 -5 526 21 101 75 275 86
275 4 0 17 -19 29 -42z m1952 -1363 c0 -282 -2 -335 -14 -335 -8 0 -16 4 -18
9 -1 5 -21 20 -42 35 -55 37 -130 35 -261 -5 -188 -58 -275 -77 -355 -77 -48
0 -28 6 55 17 104 14 152 28 235 69 89 44 199 147 252 237 35 58 104 240 129
338 6 26 13 47 15 47 2 0 4 -151 4 -335z"/>
</g>
</svg>
